<svg xmlns="http://www.w3.org/2000/svg" viewBox="0 0 1200 800" role="img" aria-labelledby="title desc">
  <title id="title">Print reservation code diagram</title>
  <desc id="desc">A neutral diagram of a phone, reservation code, and convenience-store printer.</desc>
  <rect width="1200" height="800" fill="#f7f4ee"/>
  <rect x="96" y="122" width="288" height="556" rx="34" fill="#264653"/>
  <rect x="128" y="172" width="224" height="404" rx="10" fill="#ffffff"/>
  <rect x="168" y="214" width="144" height="20" fill="#2a9d8f"/>
  <rect x="168" y="258" width="96" height="18" fill="#7f8b92"/>
  <rect x="168" y="296" width="132" height="18" fill="#7f8b92"/>
  <rect x="168" y="356" width="144" height="144" fill="#e9c46a"/>
  <rect x="186" y="374" width="36" height="36" fill="#264653"/>
  <rect x="258" y="374" width="36" height="36" fill="#264653"/>
  <rect x="186" y="446" width="36" height="36" fill="#264653"/>
  <rect x="240" y="428" width="18" height="18" fill="#264653"/>
  <rect x="276" y="446" width="18" height="36" fill="#264653"/>
  <circle cx="240" cy="626" r="18" fill="#ffffff"/>
  <path d="M430 400h148" fill="none" stroke="#2a9d8f" stroke-width="22" stroke-linecap="round"/>
  <path d="M546 356l56 44-56 44" fill="none" stroke="#2a9d8f" stroke-width="22" stroke-linecap="round" stroke-linejoin="round"/>
  <rect x="654" y="212" width="382" height="378" rx="24" fill="#ffffff" stroke="#264653" stroke-width="18"/>
  <rect x="704" y="154" width="282" height="94" rx="18" fill="#457b9d"/>
  <rect x="728" y="184" width="234" height="22" fill="#ffffff"/>
  <rect x="720" y="286" width="250" height="118" rx="10" fill="#eef2f3"/>
  <rect x="756" y="326" width="178" height="20" fill="#264653"/>
  <rect x="786" y="368" width="118" height="18" fill="#7f8b92"/>
  <rect x="746" y="458" width="198" height="58" rx="10" fill="#e76f51"/>
  <rect x="782" y="538" width="126" height="20" fill="#264653"/>
  <circle cx="1012" cy="625" r="24" fill="#2a9d8f"/>
  <circle cx="946" cy="625" r="24" fill="#e9c46a"/>
  <path d="M660 664h372" stroke="#264653" stroke-width="20" stroke-linecap="round"/>
  <path d="M160 720h880" stroke="#d7d2c8" stroke-width="16" stroke-linecap="round"/>
</svg>
