<svg xmlns="http://www.w3.org/2000/svg" viewBox="0 0 960 540" role="img" aria-labelledby="title desc">
  <title id="title">認証コードの入力待ち</title>
  <desc id="desc">スマートフォン、メール、6桁コード入力欄を抽象化した自作図版。</desc>
  <rect width="960" height="540" fill="#f4f1ea"/>
  <rect x="84" y="72" width="792" height="396" rx="28" fill="#fbfaf7" stroke="#253238" stroke-width="10"/>
  <rect x="130" y="122" width="228" height="296" rx="30" fill="#253238"/>
  <rect x="154" y="158" width="180" height="214" rx="10" fill="#f4f1ea"/>
  <circle cx="244" cy="395" r="9" fill="#f4f1ea"/>
  <path d="M433 170h314c27 0 49 22 49 49v112c0 27-22 49-49 49H433c-27 0-49-22-49-49V219c0-27 22-49 49-49Z" fill="#e2d9c8" stroke="#253238" stroke-width="8"/>
  <path d="m400 211 185 108 195-108" fill="none" stroke="#253238" stroke-width="8" stroke-linecap="round" stroke-linejoin="round"/>
  <g fill="#f27b50" stroke="#253238" stroke-width="7">
    <rect x="408" y="420" width="62" height="58" rx="11"/>
    <rect x="494" y="420" width="62" height="58" rx="11"/>
    <rect x="580" y="420" width="62" height="58" rx="11"/>
    <rect x="666" y="420" width="62" height="58" rx="11"/>
    <rect x="752" y="420" width="62" height="58" rx="11"/>
  </g>
  <g fill="#253238">
    <circle cx="439" cy="449" r="6"/>
    <circle cx="525" cy="449" r="6"/>
    <circle cx="611" cy="449" r="6"/>
    <circle cx="697" cy="449" r="6"/>
    <circle cx="783" cy="449" r="6"/>
  </g>
  <path d="M207 210h74M207 250h74M207 290h48" stroke="#d0473d" stroke-width="13" stroke-linecap="round"/>
  <path d="M652 112c0 27-22 49-49 49s-49-22-49-49 22-49 49-49 49 22 49 49Z" fill="#7aa39b" stroke="#253238" stroke-width="8"/>
  <path d="m584 112 14 15 28-32" fill="none" stroke="#253238" stroke-width="8" stroke-linecap="round" stroke-linejoin="round"/>
</svg>
