<svg xmlns="http://www.w3.org/2000/svg" width="1200" height="800" viewBox="0 0 1200 800" role="img" aria-labelledby="title desc">
  <title id="title">Free sound material pages</title>
  <desc id="desc">A self-made abstract diagram of linked sound material pages, category rows, and a waveform.</desc>
  <rect width="1200" height="800" fill="#f6f2e8"/>
  <rect x="88" y="86" width="1024" height="628" rx="26" fill="#233142"/>
  <rect x="132" y="132" width="386" height="512" rx="18" fill="#fffaf0"/>
  <rect x="682" y="132" width="386" height="512" rx="18" fill="#fffaf0"/>
  <path d="M548 264 C618 214 650 214 720 264" fill="none" stroke="#f4b942" stroke-width="18" stroke-linecap="round"/>
  <path d="M548 400 C624 468 646 468 720 400" fill="none" stroke="#66bfbf" stroke-width="18" stroke-linecap="round"/>
  <path d="M548 538 C610 510 658 510 720 538" fill="none" stroke="#df5e88" stroke-width="18" stroke-linecap="round"/>
  <g fill="none" stroke="#233142" stroke-linecap="round">
    <path d="M184 298 h24 l18 -72 34 184 32 -244 30 172 24 -58 h88" stroke-width="12"/>
    <path d="M734 314 h34 l20 -52 34 136 34 -198 32 164 26 -50 h92" stroke-width="12"/>
  </g>
  <g fill="#233142">
    <rect x="184" y="178" width="222" height="20" rx="10"/>
    <rect x="184" y="466" width="262" height="18" rx="9"/>
    <rect x="184" y="510" width="198" height="18" rx="9"/>
    <rect x="184" y="554" width="232" height="18" rx="9"/>
    <rect x="734" y="178" width="248" height="20" rx="10"/>
    <rect x="734" y="466" width="284" height="18" rx="9"/>
    <rect x="734" y="510" width="216" height="18" rx="9"/>
    <rect x="734" y="554" width="256" height="18" rx="9"/>
  </g>
  <g fill="#f4b942">
    <circle cx="548" cy="264" r="14"/>
    <circle cx="720" cy="264" r="14"/>
  </g>
  <g fill="#66bfbf">
    <circle cx="548" cy="400" r="14"/>
    <circle cx="720" cy="400" r="14"/>
  </g>
  <g fill="#df5e88">
    <circle cx="548" cy="538" r="14"/>
    <circle cx="720" cy="538" r="14"/>
  </g>
</svg>
