<svg xmlns="http://www.w3.org/2000/svg" viewBox="0 0 960 540" role="img" aria-labelledby="title desc">
  <title id="title">トラックバック欄が残した往復リンク</title>
  <desc id="desc">二つのブログ記事、トラックバック通知、ピンバック、スパムフィルタ、保存された仕様文書を線で結ぶ自作図版。</desc>
  <rect width="960" height="540" fill="#f7f4ee"/>
  <rect x="86" y="86" width="290" height="270" rx="8" fill="#ffffff" stroke="#2f4b45" stroke-width="4"/>
  <rect x="584" y="118" width="290" height="270" rx="8" fill="#ffffff" stroke="#4a3f6b" stroke-width="4"/>
  <rect x="118" y="126" width="226" height="28" rx="4" fill="#2f4b45"/>
  <rect x="118" y="184" width="180" height="18" rx="3" fill="#d8c85e"/>
  <rect x="118" y="224" width="218" height="16" rx="3" fill="#b7c7bd"/>
  <rect x="118" y="258" width="194" height="16" rx="3" fill="#b7c7bd"/>
  <rect x="118" y="292" width="156" height="16" rx="3" fill="#b7c7bd"/>
  <rect x="622" y="158" width="214" height="28" rx="4" fill="#4a3f6b"/>
  <rect x="622" y="216" width="168" height="18" rx="3" fill="#d46a4c"/>
  <rect x="622" y="256" width="212" height="16" rx="3" fill="#cfc8df"/>
  <rect x="622" y="290" width="190" height="16" rx="3" fill="#cfc8df"/>
  <rect x="622" y="324" width="134" height="16" rx="3" fill="#cfc8df"/>
  <path d="M376 190 C466 136 526 136 616 190" fill="none" stroke="#2f4b45" stroke-width="10" stroke-linecap="round"/>
  <path d="M584 300 C494 356 436 356 346 300" fill="none" stroke="#4a3f6b" stroke-width="10" stroke-linecap="round"/>
  <path d="M608 184 l-34 -5 15 31 z" fill="#2f4b45"/>
  <path d="M354 304 l34 6 -15 -31 z" fill="#4a3f6b"/>
  <rect x="392" y="214" width="176" height="84" rx="8" fill="#fff8d8" stroke="#8b7532" stroke-width="4"/>
  <path d="M416 244 h128 M416 270 h96" stroke="#8b7532" stroke-width="10" stroke-linecap="round"/>
  <circle cx="480" cy="412" r="42" fill="#d46a4c"/>
  <path d="M456 412 h48 M480 388 v48" stroke="#fff7ea" stroke-width="12" stroke-linecap="round"/>
  <rect x="379" y="404" width="202" height="48" rx="6" fill="none" stroke="#d46a4c" stroke-width="4" stroke-dasharray="10 10"/>
  <text x="96" y="420" font-family="Arial, sans-serif" font-size="28" fill="#2f4b45">trackback URL</text>
  <text x="622" y="454" font-family="Arial, sans-serif" font-size="28" fill="#4a3f6b">pingback / moderation</text>
  <text x="378" y="70" font-family="Arial, sans-serif" font-size="34" fill="#252525">blog to blog notice</text>
</svg>
